<svg width="32" height="32" viewBox="0 0 32 32" fill="none" xmlns="http://www.w3.org/2000/svg">
<path d="M15.5328 8.00009H17.0661C18.5596 8.00009 19.3064 8.00009 19.8768 8.29074C20.3785 8.54639 20.7865 8.95434 21.0421 9.45612C21.3328 10.0265 21.3328 10.7733 21.3328 12.2668V13.3334L24.7686 11.272C25.826 10.6375 26.3548 10.3202 26.7899 10.3608C27.1692 10.3961 27.5154 10.5921 27.7408 10.8992C27.9995 11.2514 27.9995 11.868 27.9995 13.1013V18.8989C27.9995 19.5721 27.9995 20.0617 27.9574 20.4246M3.99945 4.00008L7.99953 8.00015M7.99953 8.00015C6.68168 8.00118 5.99091 8.01791 5.45548 8.29074C4.95371 8.54639 4.54576 8.95434 4.2901 9.45612C3.99945 10.0265 3.99945 10.7733 3.99945 12.2668V19.7334C3.99945 21.2269 3.99945 21.9737 4.2901 22.5441C4.54576 23.0458 4.95371 23.4538 5.45548 23.7094C6.02591 24.0001 6.77264 24.0001 8.26613 24.0001H17.0661C18.5596 24.0001 19.3064 24.0001 19.8768 23.7094C20.3785 23.4538 20.7865 23.0458 21.0421 22.5441C21.206 22.2225 21.2775 21.845 21.3087 21.3093M7.99953 8.00015L21.3087 21.3093M27.9995 28.0001L21.3087 21.3093" stroke="black" stroke-width="2.5946" stroke-linecap="round" stroke-linejoin="round"/>
</svg>
