<svg width="32" height="32" viewBox="0 0 32 32" fill="none" xmlns="http://www.w3.org/2000/svg">
<path fill-rule="evenodd" clip-rule="evenodd" d="M15.6 18.6667C14.164 18.6667 13 17.4728 13 16C13 14.5272 14.164 13.3334 15.6 13.3334C17.0359 13.3334 18.2 14.5272 18.2 16C18.2 16.7072 17.926 17.3855 17.4386 17.8856C16.951 18.3858 16.2896 18.6667 15.6 18.6667Z" stroke="black" stroke-width="1.94595" stroke-linecap="round" stroke-linejoin="round"/>
<path fill-rule="evenodd" clip-rule="evenodd" d="M22.5121 21.4174V19.6281C22.5121 19.185 22.6837 18.7601 22.9892 18.4467L24.2229 17.1814C24.8591 16.529 24.8591 15.4711 24.2229 14.8187L22.9892 13.5534C22.6837 13.2401 22.5121 12.8152 22.5121 12.3721V10.5814C22.5121 9.65872 21.7828 8.91073 20.8832 8.91073H19.1373C18.7053 8.91073 18.2909 8.7347 17.9855 8.4214L16.7517 7.15606C16.1156 6.50364 15.0843 6.50364 14.4481 7.15606L13.2145 8.4214C12.909 8.7347 12.4947 8.91073 12.0627 8.91073H10.3168C9.88455 8.91073 9.47004 9.08693 9.16452 9.40053C8.859 9.71413 8.68755 10.1394 8.68789 10.5827V12.3721C8.68788 12.8152 8.51627 13.2401 8.21079 13.5534L6.97709 14.8187C6.34097 15.4711 6.34097 16.529 6.97709 17.1814L8.21079 18.4467C8.51627 18.7601 8.68788 19.185 8.68789 19.6281V21.4174C8.68789 22.3401 9.41717 23.0881 10.3168 23.0881H12.0627C12.4947 23.0881 12.909 23.2641 13.2145 23.5774L14.4481 24.8427C15.0843 25.4951 16.1156 25.4951 16.7517 24.8427L17.9855 23.5774C18.2909 23.2641 18.7053 23.0881 19.1373 23.0881H20.8819C21.3141 23.0885 21.7288 22.9126 22.0345 22.5991C22.3403 22.2858 22.5121 21.8607 22.5121 21.4174Z" stroke="black" stroke-width="1.94595" stroke-linecap="round" stroke-linejoin="round"/>
</svg>
