<svg width="25" height="25" viewBox="0 0 25 25" fill="none" xmlns="http://www.w3.org/2000/svg">
<g clip-path="url(#clip0_1_441)">
<path d="M21.1093 12.2542V10.979H19.4199V12.2542C19.4199 13.1582 19.2459 14.0217 18.9293 14.8134L20.2049 16.0893C20.7833 14.9352 21.1086 13.6325 21.1093 12.2542Z" fill="black"/>
<path d="M9.80125 4.3874C9.80232 3.64243 10.1031 2.97256 10.5929 2.48057C11.0849 1.98999 11.7537 1.68994 12.4988 1.68892C13.2448 1.68994 13.914 1.98999 14.4056 2.48057C14.8965 2.97256 15.1973 3.64243 15.1973 4.3874V11.0807L16.8589 12.7426C16.8774 12.5826 16.8866 12.4191 16.8866 12.2542V4.3874C16.8847 1.96582 14.9214 0.00170898 12.4987 0C10.2037 0.00170898 8.3197 1.76685 8.12878 4.0127L9.8012 5.68511L9.80125 4.3874Z" fill="black"/>
<path d="M19.2211 17.6243L18.0192 16.4224L16.2019 14.605L14.9586 13.3617L9.80088 8.204L8.11196 6.51504L4.12979 2.53296L2.87036 3.79238L8.11196 9.03394V12.2542C8.11338 14.6759 10.0778 16.6392 12.4983 16.641C13.4107 16.6403 14.2543 16.3557 14.9561 15.8784L16.7682 17.6902C15.5898 18.6177 14.1115 19.175 12.4983 19.175C10.5894 19.175 8.86362 18.4001 7.60767 17.1459C6.35176 15.889 5.57764 14.1632 5.57764 12.2542V10.9791H3.8877V12.2543C3.88945 16.6217 7.15435 20.2267 11.3727 20.7825V25.0001H13.6251V20.7825C15.2622 20.5667 16.7536 19.8905 17.9681 18.89L20.868 21.7899L22.1274 20.5305L19.2211 17.6243ZM12.4983 14.9517C11.7533 14.951 11.0834 14.65 10.5925 14.1601C10.1027 13.6691 9.80191 12.9992 9.80083 12.2542V10.7229L13.7293 14.6513C13.3602 14.8419 12.9433 14.9514 12.4983 14.9517Z" fill="black"/>
</g>
<defs>
<clipPath id="clip0_1_441">
<rect width="25" height="25" fill="white"/>
</clipPath>
</defs>
</svg>
