<svg width="12" height="12" viewBox="0 0 12 12" fill="none" xmlns="http://www.w3.org/2000/svg">
<path fill-rule="evenodd" clip-rule="evenodd" d="M3.64913 5.27813C3.129 5.37263 2.64563 5.6235 2.2665 6.00263C1.77563 6.4935 1.5 7.15913 1.5 7.85325V9.36788C1.5 9.98925 2.00363 10.4929 2.625 10.4929C4.194 10.4929 7.806 10.4929 9.375 10.4929C9.99638 10.4929 10.5 9.98925 10.5 9.36788V7.85325C10.5 7.15913 10.2244 6.4935 9.7335 6.00263C9.35437 5.6235 8.871 5.37263 8.35087 5.27813C8.52637 4.926 8.625 4.52925 8.625 4.10925C8.625 2.66063 7.44863 1.48425 6 1.48425C4.55137 1.48425 3.375 2.66063 3.375 4.10925C3.375 4.52925 3.47362 4.926 3.64913 5.27813ZM7.8375 5.98313C7.36425 6.44775 6.71513 6.73425 6 6.73425C5.28487 6.73425 4.63575 6.44775 4.1625 5.98313C4.1475 5.985 4.1325 5.98575 4.1175 5.98575C3.62212 5.98575 3.147 6.18263 2.79713 6.53288C2.44688 6.88313 2.25 7.35825 2.25 7.85325V9.36788C2.25 9.57488 2.418 9.74288 2.625 9.74288H9.375C9.582 9.74288 9.75 9.57488 9.75 9.36788V7.85325C9.75 7.35825 9.55313 6.88313 9.20288 6.53288C8.853 6.18263 8.37788 5.98575 7.8825 5.98575C7.8675 5.98575 7.8525 5.985 7.8375 5.98313ZM6 2.23425C7.035 2.23425 7.875 3.07463 7.875 4.10925C7.875 5.14425 7.035 5.98425 6 5.98425C4.965 5.98425 4.125 5.14425 4.125 4.10925C4.125 3.07463 4.965 2.23425 6 2.23425Z" fill="black"/>
<path fill-rule="evenodd" clip-rule="evenodd" d="M7.5 7.50299H7.125C6.918 7.50299 6.75 7.67099 6.75 7.87799C6.75 8.08499 6.918 8.25299 7.125 8.25299H7.5V8.62799C7.5 8.83499 7.668 9.00299 7.875 9.00299C8.082 9.00299 8.25 8.83499 8.25 8.62799V8.25299H8.625C8.832 8.25299 9 8.08499 9 7.87799C9 7.67099 8.832 7.50299 8.625 7.50299H8.25V7.12799C8.25 6.92099 8.082 6.75299 7.875 6.75299C7.668 6.75299 7.5 6.92099 7.5 7.12799V7.50299Z" fill="black"/>
</svg>
