<svg width="13" height="14" viewBox="0 0 13 14" fill="none" xmlns="http://www.w3.org/2000/svg">
<path d="M6.5 1C2.90875 1 0 3.48083 0 6.17292C0 7.75458 1.0075 9.39583 2.55667 10.2842L1.625 12.9167L4.79375 11.1183C5.34083 11.2267 5.90958 11.2917 6.5 11.2917C10.0913 11.2917 13 8.865 13 6.17292C13 3.48083 10.0913 1 6.5 1ZM3.54792 7.93333C3.26083 8.18792 2.87625 8.3125 2.38875 8.3125C2.10708 8.3125 1.86333 8.28 1.65208 8.22042C1.44083 8.16083 1.24583 8.07958 1.06167 7.9875V6.99083H1.14833C1.3325 7.16958 1.53292 7.305 1.755 7.4025C1.97708 7.5 2.18833 7.54333 2.39958 7.54333C2.45375 7.54333 2.52417 7.53792 2.60542 7.52167C2.69208 7.51083 2.7625 7.48917 2.81125 7.46208C2.87625 7.42958 2.93042 7.38625 2.97375 7.32667C3.01708 7.2725 3.03875 7.19667 3.03875 7.09917C3.03875 6.99625 3.00083 6.90958 2.93042 6.84458C2.86 6.77958 2.77333 6.73083 2.67042 6.70375C2.54583 6.66583 2.41583 6.63333 2.275 6.59542C2.13417 6.56292 1.99875 6.51958 1.87958 6.47083C1.59792 6.35708 1.39208 6.20542 1.27292 6.01042C1.14833 5.81542 1.08875 5.57708 1.08875 5.28458C1.08875 4.89458 1.235 4.575 1.52208 4.33667C1.80917 4.09292 2.17208 3.97375 2.60542 3.97375C2.82208 3.97375 3.03875 4.00083 3.25542 4.04958C3.47208 4.09833 3.66167 4.16875 3.82958 4.25542V5.20875H3.75375C3.61833 5.08417 3.45042 4.97042 3.25542 4.87833C3.06042 4.78625 2.86 4.7375 2.65417 4.7375C2.57292 4.7375 2.5025 4.74292 2.4375 4.75917C2.3725 4.77542 2.3075 4.79708 2.23708 4.835C2.1775 4.8675 2.12875 4.91083 2.09083 4.97042C2.0475 5.03 2.02583 5.095 2.02583 5.16542C2.02583 5.27375 2.05833 5.355 2.12333 5.42C2.18833 5.485 2.31833 5.53917 2.50792 5.58792C2.6325 5.62042 2.74625 5.65292 2.86542 5.68C2.97375 5.7125 3.09833 5.75583 3.22833 5.80458C3.48292 5.9075 3.6725 6.04833 3.79167 6.22708C3.91625 6.40583 3.97583 6.63875 3.97583 6.92583C3.97583 7.34833 3.835 7.67875 3.54792 7.93333ZM8.30375 8.23667H7.39375V5.46333L6.7275 7.25083H6.09917L5.43292 5.46333V8.23667H4.57167V4.055H5.62792L6.44042 6.11875L7.2475 4.055H8.30375V8.23667ZM11.4725 7.93333C11.1854 8.18792 10.8008 8.3125 10.3133 8.3125C10.0317 8.3125 9.78792 8.28 9.57667 8.22042C9.36542 8.16083 9.17042 8.07958 8.98625 7.9875V6.99083H9.07292C9.25708 7.16958 9.4575 7.305 9.67958 7.4025C9.90167 7.5 10.1129 7.54333 10.3242 7.54333C10.3783 7.54333 10.4488 7.53792 10.53 7.52167C10.6167 7.51083 10.6871 7.48917 10.7358 7.46208C10.8008 7.42958 10.855 7.38625 10.8983 7.32667C10.9417 7.2725 10.9633 7.19667 10.9633 7.09917C10.9633 6.99625 10.9254 6.90958 10.855 6.84458C10.7846 6.77958 10.6979 6.73083 10.595 6.70375C10.4704 6.66583 10.3404 6.63333 10.1996 6.59542C10.0588 6.56292 9.92333 6.51958 9.80417 6.47083C9.5225 6.35708 9.31667 6.20542 9.1975 6.01042C9.07292 5.81542 9.01333 5.57708 9.01333 5.28458C9.01333 4.89458 9.15958 4.575 9.44667 4.33667C9.73375 4.09292 10.0967 3.97375 10.53 3.97375C10.7467 3.97375 10.9633 4.00083 11.18 4.04958C11.3967 4.09833 11.5863 4.16875 11.7542 4.25542V5.20875H11.6729C11.5375 5.07333 11.3696 4.965 11.1746 4.87292C10.9796 4.78625 10.7792 4.7375 10.5733 4.7375C10.4921 4.7375 10.4217 4.74292 10.3567 4.75917C10.2917 4.77542 10.2267 4.79708 10.1562 4.835C10.0967 4.8675 10.0479 4.91083 10.01 4.97042C9.96667 5.03 9.945 5.095 9.945 5.17083C9.945 5.27917 9.9775 5.36042 10.0425 5.42542C10.1075 5.49042 10.2375 5.54458 10.4271 5.59333C10.5517 5.62583 10.6654 5.65833 10.7846 5.68542C10.8983 5.71792 11.0175 5.75583 11.1475 5.81C11.4021 5.91292 11.5917 6.05375 11.7108 6.2325C11.8354 6.41125 11.895 6.64417 11.895 6.93125C11.9004 7.34833 11.7542 7.67875 11.4725 7.93333Z" fill="black"/>
</svg>
