<svg width="15" height="15" viewBox="0 0 15 15" fill="none" xmlns="http://www.w3.org/2000/svg">
<path d="M12.8999 3.97508H11.9849C11.9049 3.97508 11.8374 4.00258 11.7824 4.05758C11.7274 4.11258 11.6999 4.18008 11.6999 4.26008V7.95008C11.6999 8.34008 11.5599 8.67508 11.2799 8.95508C10.9999 9.23508 10.6599 9.37508 10.2599 9.37508H4.18487C4.10487 9.37508 4.03737 9.40258 3.98237 9.45758C3.92737 9.51258 3.89987 9.58008 3.89987 9.66008V10.5751C3.89987 10.7451 3.95737 10.8876 4.07237 11.0026C4.18737 11.1176 4.32987 11.1751 4.49987 11.1751H10.7249C10.9749 11.1751 11.1899 11.2651 11.3699 11.4451L13.0199 13.0951C13.0599 13.1351 13.1074 13.1601 13.1624 13.1701C13.2174 13.1801 13.2724 13.1751 13.3274 13.1551C13.3824 13.1351 13.4249 13.1001 13.4549 13.0501C13.4849 13.0001 13.4999 12.9451 13.4999 12.8851V4.57508C13.4999 4.40508 13.4424 4.26258 13.3274 4.14758C13.2124 4.03258 13.0699 3.97508 12.8999 3.97508ZM10.4999 7.57508V2.17508C10.4999 2.00508 10.4424 1.86258 10.3274 1.74758C10.2124 1.63258 10.0699 1.57508 9.89987 1.57508H2.09987C1.92987 1.57508 1.78737 1.63258 1.67237 1.74758C1.55737 1.86258 1.49987 2.00508 1.49987 2.17508V9.88508C1.49987 9.94508 1.51487 10.0001 1.54487 10.0501C1.57487 10.1001 1.61737 10.1351 1.67237 10.1551C1.72737 10.1751 1.78237 10.1801 1.83737 10.1701C1.89237 10.1601 1.93987 10.1351 1.97987 10.0951L3.62987 8.44508C3.80987 8.26508 4.02487 8.17508 4.27487 8.17508H9.89987C10.0699 8.17508 10.2124 8.11508 10.3274 7.99508C10.4424 7.87508 10.4999 7.73508 10.4999 7.57508Z" fill="black"/>
</svg>
