<svg width="22" height="22" viewBox="0 0 22 22" fill="none" xmlns="http://www.w3.org/2000/svg">
<path opacity="0.5" d="M11.9018 20.6201L12.3942 19.7889C12.776 19.1442 12.9669 18.8218 13.2736 18.6435C13.5803 18.4653 13.9664 18.4586 14.7386 18.4454C15.8788 18.4257 16.5938 18.356 17.1935 18.1077C18.3061 17.6472 19.1902 16.7638 19.651 15.6519C19.8206 15.2426 19.9071 14.7794 19.951 14.1639C19.9744 13.8378 19.986 13.6747 19.8989 13.5443C19.8119 13.4138 19.6467 13.3584 19.3162 13.2477C17.9305 12.7833 14.7201 11.6018 12.9249 10.0841C10.9014 8.37324 9.09125 4.89537 8.4435 3.56231C8.31473 3.2973 8.25035 3.1648 8.13731 3.09487C8.02426 3.02495 7.8809 3.02646 7.59416 3.0295C5.72942 3.04919 4.88497 3.15241 4.00151 3.69343C3.39051 4.06759 2.87681 4.58096 2.50239 5.19154C1.83325 6.28273 1.83325 7.76813 1.83325 10.7389V11.6465C1.83325 13.7608 1.83325 14.818 2.1789 15.6519C2.63977 16.7638 3.52376 17.6472 4.63639 18.1077C5.23606 18.356 5.95109 18.4257 7.09117 18.4454C7.86342 18.4586 8.24955 18.4653 8.55624 18.6435C8.86293 18.8218 9.05385 19.1442 9.43572 19.7889L9.92806 20.6201C10.3669 21.3609 11.463 21.3609 11.9018 20.6201Z" fill="white"/>
<path fill-rule="evenodd" clip-rule="evenodd" d="M13.6327 0.219292C13.9401 0.509135 13.937 0.976167 13.6257 1.26243L12.6154 2.19144C13.4943 2.19971 14.3398 2.21965 15.1027 2.26772C15.7588 2.30906 16.3732 2.37224 16.9086 2.47142C17.4331 2.56855 17.9383 2.71004 18.3397 2.93618C19.0856 3.35652 19.7137 3.93379 20.1721 4.62144C20.6129 5.28301 20.8071 6.03079 20.9004 6.93253C20.9916 7.81475 20.9916 8.91726 20.9916 10.3152V10.354C20.9916 10.7614 20.6369 11.0917 20.1993 11.0917C19.7618 11.0917 19.407 10.7614 19.407 10.354C19.407 8.90872 19.4062 7.87717 19.3231 7.07389C19.2413 6.28199 19.0852 5.78877 18.8256 5.39921C18.5 4.91054 18.0526 4.49878 17.5192 4.19827C17.349 4.10235 17.0529 4.0023 16.5995 3.9183C16.157 3.83633 15.6171 3.77876 14.9957 3.73961C14.2779 3.69438 13.4774 3.67511 12.6284 3.6669L13.6257 4.58396C13.937 4.87023 13.9401 5.33725 13.6327 5.6271C13.3251 5.91695 12.8235 5.91984 12.5122 5.63358L10.1355 3.448C9.98469 3.30941 9.8999 3.12042 9.8999 2.92319C9.8999 2.72597 9.98469 2.53698 10.1355 2.39838L12.5122 0.212818C12.8235 -0.0734487 13.3251 -0.0705499 13.6327 0.219292Z" fill="white"/>
</svg>
