<svg width="45" height="45" viewBox="0 0 45 45" fill="none" xmlns="http://www.w3.org/2000/svg">
<circle cx="22.5" cy="22.5" r="22.5" fill="#AE0707"/>
<path d="M14.3687 28.4593C13.6681 27.7718 12.5524 26.6561 11.6573 25.748C11.4516 25.553 11.2916 25.3148 11.1888 25.0507C11.086 24.7865 11.043 24.5028 11.0628 24.22C11.0827 23.9373 11.1649 23.6624 11.3035 23.4152C11.4422 23.1679 11.6339 22.9545 11.8649 22.7901C14.9551 20.4053 18.7485 19.1118 22.6519 19.1118C26.5553 19.1118 30.3487 20.4053 33.439 22.7901C33.6699 22.9545 33.8616 23.1679 34.0003 23.4152C34.139 23.6624 34.2212 23.9373 34.241 24.22C34.2609 24.5028 34.2178 24.7865 34.1151 25.0507C34.0123 25.3148 33.8523 25.553 33.6465 25.748L30.9352 28.4593C30.7666 28.6299 30.5409 28.7322 30.3014 28.7466C30.062 28.761 29.8257 28.6864 29.6379 28.5372C28.6606 27.6989 27.5399 27.044 26.3298 26.6042C26.1032 26.519 25.9171 26.3514 25.8089 26.1349C25.7006 25.9184 25.6782 25.669 25.746 25.4366L26.0054 24.5026C26.0374 24.3658 26.0406 24.2238 26.0148 24.0858C25.9889 23.9477 25.9346 23.8165 25.8553 23.7006C25.776 23.5847 25.6734 23.4865 25.554 23.4124C25.4347 23.3383 25.3013 23.2898 25.1622 23.2701C23.4738 22.9457 21.7392 22.9457 20.0508 23.2701C19.9167 23.2959 19.7892 23.3489 19.6763 23.4259C19.5635 23.5029 19.4676 23.6022 19.3946 23.7177C19.3217 23.8332 19.2732 23.9625 19.2522 24.0975C19.2312 24.2325 19.2381 24.3703 19.2725 24.5026L19.5319 25.4366C19.599 25.6706 19.5747 25.9214 19.4639 26.1382C19.3531 26.3549 19.1641 26.5215 18.9352 26.6042C17.7265 27.0471 16.6063 27.7016 15.627 28.5372C15.4432 28.6782 15.2146 28.7481 14.9833 28.7338C14.752 28.7195 14.5337 28.622 14.3687 28.4593Z" stroke="white" stroke-width="2.5946" stroke-linecap="round" stroke-linejoin="round"/>
</svg>
