<svg width="10" height="10" viewBox="0 0 10 10" fill="none" xmlns="http://www.w3.org/2000/svg">
<g clip-path="url(#clip0_2_29)">
<path d="M5.00004 0.833336C2.70421 0.833336 0.833374 2.70417 0.833374 5C0.833374 7.29584 2.70421 9.16667 5.00004 9.16667C7.29587 9.16667 9.16671 7.29584 9.16671 5C9.16671 2.70417 7.29587 0.833336 5.00004 0.833336ZM6.99171 4.04167L4.62921 6.40417C4.57087 6.4625 4.49171 6.49584 4.40837 6.49584C4.32504 6.49584 4.24587 6.4625 4.18754 6.40417L3.00837 5.225C2.88754 5.10417 2.88754 4.90417 3.00837 4.78334C3.12921 4.6625 3.32921 4.6625 3.45004 4.78334L4.40837 5.74167L6.55004 3.6C6.67087 3.47917 6.87087 3.47917 6.99171 3.6C7.11254 3.72084 7.11254 3.91667 6.99171 4.04167Z" fill="#1CB472"/>
</g>
<defs>
<clipPath id="clip0_2_29">
<rect width="10" height="10" fill="white"/>
</clipPath>
</defs>
</svg>
