<svg width="22" height="22" viewBox="0 0 22 22" fill="none" xmlns="http://www.w3.org/2000/svg">
<path fill-rule="evenodd" clip-rule="evenodd" d="M5.78707 11.4244C5.68339 8.51778 7.89228 6.07309 10.7259 5.95833C13.5596 6.07309 15.7685 8.51778 15.6648 11.4244C15.6648 12.6317 16.9438 13.8077 16.9812 15.0177C16.9812 15.0349 16.9812 15.0519 16.9812 15.0691C17.0089 15.8443 16.4197 16.4962 15.6639 16.5266H12.8111C12.8137 17.1206 12.5954 17.6933 12.2007 18.128C11.8211 18.5508 11.2863 18.7913 10.7259 18.7913C10.1656 18.7913 9.63087 18.5508 9.25128 18.128C8.85648 17.6933 8.63817 17.1206 8.64082 16.5266H5.78707C5.0313 16.4962 4.44201 15.8443 4.46969 15.0691C4.46969 15.0519 4.46969 15.0349 4.46969 15.0177C4.50812 13.8114 5.78707 12.6326 5.78707 11.4244Z" stroke="white" stroke-width="1.375" stroke-linecap="round" stroke-linejoin="round"/>
<path d="M8.64062 15.8391C8.26093 15.8391 7.95312 16.1469 7.95312 16.5266C7.95312 16.9063 8.26093 17.2141 8.64062 17.2141V15.8391ZM12.8109 17.2141C13.1906 17.2141 13.4984 16.9063 13.4984 16.5266C13.4984 16.1469 13.1906 15.8391 12.8109 15.8391V17.2141ZM11.6195 4.8125C11.9992 4.8125 12.307 4.50469 12.307 4.125C12.307 3.74531 11.9992 3.4375 11.6195 3.4375V4.8125ZM9.83199 3.4375C9.45231 3.4375 9.1445 3.74531 9.1445 4.125C9.1445 4.50469 9.45231 4.8125 9.83199 4.8125V3.4375ZM8.64062 17.2141H12.8109V15.8391H8.64062V17.2141ZM11.6195 3.4375H9.83199V4.8125H11.6195V3.4375Z" fill="white"/>
</svg>
