<svg width="15" height="15" viewBox="0 0 15 15" fill="none" xmlns="http://www.w3.org/2000/svg">
<path d="M6.5625 0.25C6.5625 0.111929 6.45057 0 6.3125 0H2.125C1.98693 0 1.875 0.111929 1.875 0.25V14.75C1.875 14.8881 1.98693 15 2.125 15H12.875C13.0131 15 13.125 14.8881 13.125 14.75V6.8125C13.125 6.67443 13.0131 6.5625 12.875 6.5625H6.8125C6.67443 6.5625 6.5625 6.45057 6.5625 6.3125V0.25Z" fill="black"/>
<path d="M8.86428 0.426777C8.70679 0.269286 8.4375 0.380827 8.4375 0.603553V4.4375C8.4375 4.57557 8.54943 4.6875 8.6875 4.6875H12.5214C12.7442 4.6875 12.8557 4.41821 12.6982 4.26072L8.86428 0.426777Z" fill="black"/>
</svg>
